<svg width="192" height="49" viewBox="0 0 192 49" fill="none" xmlns="http://www.w3.org/2000/svg">
<path d="M15.296 48C14.7413 48 14.2507 47.872 13.824 47.616C13.3973 47.3173 13.184 46.8907 13.184 46.336V5.184H2.432C1.92 5.184 1.51467 4.992 1.216 4.608C0.917333 4.18133 0.768 3.712 0.768 3.2C0.768 2.688 0.917333 2.24 1.216 1.856C1.51467 1.42933 1.92 1.216 2.432 1.216H28.096C28.6507 1.216 29.056 1.42933 29.312 1.856C29.568 2.24 29.696 2.66667 29.696 3.136C29.696 3.648 29.568 4.11733 29.312 4.544C29.056 4.97066 28.6507 5.184 28.096 5.184H17.408V46.336C17.408 46.8907 17.1733 47.3173 16.704 47.616C16.2773 47.872 15.808 48 15.296 48ZM30.587 48C30.2457 48 29.883 47.936 29.499 47.808C29.115 47.6373 28.795 47.424 28.539 47.168C28.283 46.8693 28.155 46.5493 28.155 46.208C28.155 46.0373 28.1763 45.888 28.219 45.76L41.595 2.368C41.7657 1.81333 42.0857 1.42933 42.555 1.216C43.0243 0.959998 43.5363 0.831997 44.091 0.831997C44.6883 0.831997 45.2217 0.959998 45.691 1.216C46.203 1.472 46.523 1.856 46.651 2.368L59.963 45.76C60.0057 45.888 60.027 46.016 60.027 46.144C60.027 46.4853 59.899 46.8053 59.643 47.104C59.387 47.36 59.067 47.5733 58.683 47.744C58.299 47.9147 57.8937 48 57.467 48C57.1257 48 56.8057 47.9147 56.507 47.744C56.2083 47.5733 55.995 47.296 55.867 46.912L52.923 37.056H35.259L32.315 46.912C32.187 47.296 31.9737 47.5733 31.675 47.744C31.3763 47.9147 31.0137 48 30.587 48ZM36.283 33.408H51.835L44.091 7.616L36.283 33.408ZM76.7365 48.448C74.0058 48.448 71.6592 48.0427 69.6965 47.232C67.7338 46.3787 66.2192 45.4187 65.1525 44.352C64.1285 43.2427 63.6165 42.304 63.6165 41.536C63.6165 41.1947 63.7018 40.832 63.8725 40.448C64.0858 40.064 64.3418 39.7653 64.6405 39.552C64.9392 39.296 65.2378 39.168 65.5365 39.168C65.9632 39.168 66.3898 39.4453 66.8165 40C67.2858 40.512 67.8832 41.1307 68.6085 41.856C69.3765 42.5387 70.3792 43.1573 71.6165 43.712C72.8538 44.224 74.4752 44.48 76.4805 44.48C78.4858 44.48 80.1925 44.16 81.6005 43.52C83.0085 42.8373 84.0965 41.856 84.8645 40.576C85.6325 39.2533 86.0165 37.6107 86.0165 35.648C86.0165 33.6 85.6325 31.9573 84.8645 30.72C84.0965 29.4827 83.0725 28.4587 81.7925 27.648C80.5552 26.8373 79.1898 26.1547 77.6965 25.6C76.2032 25.0453 74.6885 24.4693 73.1525 23.872C71.6592 23.2747 70.2725 22.5493 68.9925 21.696C67.7125 20.8 66.6885 19.648 65.9205 18.24C65.1525 16.7893 64.7685 14.9547 64.7685 12.736C64.7685 10.432 65.1952 8.53333 66.0485 7.04C66.9018 5.504 67.9898 4.30933 69.3125 3.456C70.6778 2.60266 72.1498 2.00533 73.7285 1.664C75.3072 1.28 76.8432 1.088 78.3365 1.088C79.5312 1.088 80.7472 1.19466 81.9845 1.408C83.2645 1.57866 84.4378 1.83466 85.5045 2.176C86.5712 2.51733 87.4245 2.944 88.0645 3.456C88.7472 3.92533 89.0885 4.45866 89.0885 5.056C89.0885 5.312 89.0032 5.632 88.8325 6.016C88.7045 6.35733 88.5125 6.67733 88.2565 6.976C88.0005 7.27467 87.6592 7.424 87.2325 7.424C86.8485 7.424 86.3152 7.232 85.6325 6.848C84.9498 6.42133 84.0112 6.016 82.8165 5.632C81.6645 5.20533 80.1498 4.992 78.2725 4.992C76.7365 4.992 75.2432 5.20533 73.7925 5.632C72.3845 6.05866 71.2325 6.82667 70.3365 7.936C69.4405 9.00267 68.9925 10.4747 68.9925 12.352C68.9925 14.0587 69.3765 15.4453 70.1445 16.512C70.9552 17.536 71.9792 18.368 73.2165 19.008C74.4965 19.648 75.8832 20.2453 77.3765 20.8C78.8698 21.312 80.3632 21.9093 81.8565 22.592C83.3925 23.232 84.7792 24.064 86.0165 25.088C87.2965 26.0693 88.3205 27.3707 89.0885 28.992C89.8565 30.6133 90.2405 32.704 90.2405 35.264C90.2405 38.2933 89.6645 40.7893 88.5125 42.752C87.3605 44.672 85.7605 46.1013 83.7125 47.04C81.7072 47.9787 79.3818 48.448 76.7365 48.448ZM99.9135 48C99.3588 48 98.8682 47.872 98.4415 47.616C98.0148 47.3173 97.8015 46.8907 97.8015 46.336V2.816C97.8015 2.26133 98.0148 1.856 98.4415 1.6C98.8682 1.344 99.3588 1.216 99.9135 1.216C100.426 1.216 100.895 1.344 101.322 1.6C101.791 1.856 102.026 2.26133 102.026 2.816V25.408L120.522 1.856C120.82 1.42933 121.247 1.216 121.802 1.216C122.186 1.216 122.548 1.32267 122.89 1.536C123.274 1.74933 123.572 2.02666 123.786 2.368C124.042 2.70933 124.17 3.05066 124.17 3.392C124.17 3.52 124.148 3.69067 124.106 3.904C124.063 4.07466 123.978 4.224 123.85 4.352L110.09 21.44L125.833 45.12C126.004 45.376 126.09 45.6533 126.09 45.952C126.09 46.336 125.962 46.6987 125.706 47.04C125.492 47.3387 125.194 47.5947 124.81 47.808C124.468 48.0213 124.084 48.128 123.658 48.128C123.359 48.128 123.06 48.0427 122.762 47.872C122.506 47.7013 122.271 47.4667 122.058 47.168L107.274 25.024L102.026 31.616V46.336C102.026 46.8907 101.791 47.3173 101.322 47.616C100.895 47.872 100.426 48 99.9135 48Z" fill="#F0F6FB"/>
<path d="M142.054 48.384C139.579 48.384 137.446 48.0427 135.654 47.36C133.862 46.6773 132.39 45.7813 131.238 44.672C130.086 43.5627 129.232 42.3467 128.678 41.024C128.166 39.7013 127.91 38.4 127.91 37.12C127.91 35.968 128.144 35.2 128.614 34.816C129.126 34.432 129.958 34.24 131.11 34.24C132.475 34.24 133.392 34.4533 133.862 34.88C134.331 35.264 134.566 35.904 134.566 36.8C134.566 37.4827 134.715 38.1653 135.014 38.848C135.355 39.488 135.824 40.0853 136.422 40.64C137.019 41.152 137.787 41.5787 138.726 41.92C139.707 42.2187 140.838 42.368 142.118 42.368C144.763 42.368 146.704 41.7493 147.942 40.512C149.222 39.232 149.862 37.2053 149.862 34.432V33.216C149.862 30.656 149.136 28.864 147.686 27.84C146.278 26.7733 144.422 26.24 142.118 26.24C141.307 26.24 140.731 25.9627 140.39 25.408C140.048 24.8107 139.878 24.192 139.878 23.552C139.878 22.8267 140.048 22.1867 140.39 21.632C140.731 21.0773 141.286 20.8 142.054 20.8C143.376 20.8 144.528 20.6293 145.51 20.288C146.534 19.904 147.323 19.2 147.878 18.176C148.432 17.152 148.71 15.68 148.71 13.76C148.71 11.4133 148.155 9.728 147.046 8.704C145.979 7.68 144.4 7.168 142.31 7.168C141.03 7.168 139.963 7.31733 139.11 7.616C138.256 7.91467 137.574 8.32 137.062 8.832C136.55 9.344 136.187 9.89867 135.974 10.496C135.76 11.0933 135.654 11.7333 135.654 12.416C135.654 13.2267 135.419 13.888 134.95 14.4C134.523 14.912 133.691 15.168 132.454 15.168C131.472 15.168 130.726 15.0827 130.214 14.912C129.702 14.7413 129.36 14.4213 129.19 13.952C129.019 13.4827 128.934 12.8427 128.934 12.032C128.934 11.008 129.147 9.87733 129.574 8.64C130 7.36 130.704 6.16533 131.686 5.056C132.71 3.904 134.096 2.98667 135.845 2.304C137.595 1.57867 139.771 1.216 142.374 1.216C144.891 1.216 147.11 1.57867 149.03 2.304C150.95 3.02933 152.464 4.224 153.574 5.888C154.683 7.552 155.238 9.792 155.238 12.608C155.238 15.296 154.768 17.5787 153.83 19.456C152.934 21.2907 151.696 22.5707 150.118 23.296C151.995 24.0213 153.552 25.1733 154.79 26.752C156.027 28.3307 156.646 30.4853 156.646 33.216V34.432C156.646 37.8027 155.984 40.512 154.662 42.56C153.382 44.608 151.632 46.1013 149.414 47.04C147.195 47.936 144.742 48.384 142.054 48.384ZM166.232 48C165.336 48 164.611 47.7867 164.056 47.36C163.501 46.9333 163.224 46.4213 163.224 45.824V3.392C163.224 2.79467 163.501 2.28267 164.056 1.856C164.611 1.42933 165.336 1.216 166.232 1.216H177.56C180.248 1.216 182.68 1.68533 184.856 2.624C187.075 3.56266 188.803 5.07733 190.04 7.168C191.32 9.25866 191.96 12.032 191.96 15.488V33.728C191.96 37.184 191.32 39.9573 190.04 42.048C188.803 44.1387 187.075 45.6533 184.856 46.592C182.68 47.5307 180.248 48 177.56 48H166.232ZM170.008 41.984H177.56C179.949 41.984 181.805 41.3227 183.128 40C184.493 38.6347 185.176 36.544 185.176 33.728V15.488C185.176 12.672 184.493 10.6027 183.128 9.28C181.805 7.91467 179.949 7.232 177.56 7.232H170.008V41.984Z" fill="#6DBEA4"/>
</svg>
